<svg width="257" height="35" viewBox="0 0 257 35" fill="none" xmlns="http://www.w3.org/2000/svg">
<path d="M24.84 34.038H0.824V31.91L4.396 29.098V7.856L0.178 6.602L1.432 4.132H24.46L27.196 3.448V13.138L25.106 13.974L20.432 7.02H11.274V17.28H15.796L18.57 13.024H20.698V24.082L18.228 25.336L15.758 20.206H11.274V31.112H20.128L25.486 23.36L27.576 24.234V34.722L24.84 34.038ZM43.0539 34H31.0459V31.872L34.4279 29.022V8.236L31.0459 5.994V3.866L38.4939 0.825999H40.8879V30.39L44.3079 31.53L43.0539 34ZM59.4963 13.138C62.1563 13.138 64.2083 14.1513 65.6523 16.178C67.1216 18.2047 67.831 21.0167 67.7803 24.614H54.1003C54.3536 26.1593 54.8983 27.4007 55.7343 28.338C56.5703 29.25 57.6596 29.706 59.0023 29.706C60.7756 29.706 63.3216 28.8193 66.6403 27.046L67.7803 29.212L62.0043 33.81C60.5096 34.19 58.7743 34.38 56.7983 34.38C54.949 34.38 53.277 33.9493 51.7823 33.088C50.313 32.2013 49.1603 30.998 48.3243 29.478C47.5136 27.958 47.1083 26.2733 47.1083 24.424C47.1083 22.4227 47.7543 20.5607 49.0463 18.838C50.3383 17.09 51.947 15.7093 53.8723 14.696C55.823 13.6573 57.6976 13.138 59.4963 13.138ZM57.4063 17.546C56.2916 17.546 55.4556 17.926 54.8983 18.686C54.341 19.4207 54.037 20.5607 53.9863 22.106H61.2443C61.0416 20.5353 60.6616 19.3827 60.1043 18.648C59.5723 17.9133 58.6603 17.546 57.3683 17.546H57.4063ZM83.8593 13.138C85.05 13.138 86.4307 13.29 88.0013 13.594C89.572 13.8727 90.712 14.1893 91.4213 14.544V21.612H89.0273C88.0647 20.32 86.9753 19.3193 85.7593 18.61C84.5433 17.9007 83.2767 17.546 81.9593 17.546C81.022 17.546 80.3 17.9893 79.7933 18.876C79.312 19.7373 79.0713 20.9787 79.0713 22.6C79.0713 24.652 79.502 26.3493 80.3633 27.692C81.25 29.0347 82.504 29.706 84.1253 29.706C85.772 29.706 88.1407 28.908 91.2313 27.312L92.3713 29.478L86.8993 33.81C85.4553 34.19 83.796 34.38 81.9213 34.38C80.072 34.38 78.4 33.9493 76.9053 33.088C75.436 32.2013 74.2833 30.998 73.4473 29.478C72.6367 27.958 72.2313 26.2733 72.2313 24.424C72.2313 22.4227 72.8267 20.5607 74.0173 18.838C75.2333 17.09 76.7533 15.7093 78.5773 14.696C80.4013 13.6573 82.162 13.138 83.8593 13.138ZM108.7 34.076C107.838 34.2787 106.812 34.38 105.622 34.38C103.19 34.38 101.404 33.8353 100.264 32.746C99.1491 31.6313 98.5918 29.9213 98.5918 27.616V17.166H94.4878V15.152L102.658 6.26H105.052V14.658H111.892V17.166H105.052V27.35C105.052 29.098 106.04 29.972 108.016 29.972C108.522 29.972 109.016 29.896 109.498 29.744C110.004 29.5667 110.638 29.2753 111.398 28.87L112.538 31.036L108.7 34.076ZM127.212 18.534C126.3 18.534 125.388 18.9393 124.476 19.75V30.01L130.252 31.53L129.036 34H114.634V31.872L118.016 29.022V20.396L114.634 18.268V16.14L122.538 12.796L123.982 17.014L127.44 13.442C127.972 13.2393 128.593 13.138 129.302 13.138C130.619 13.138 131.747 13.442 132.684 14.05C133.647 14.658 134.318 15.494 134.698 16.558L131.05 21.118H128.656C128.631 20.206 128.504 19.56 128.276 19.18C128.048 18.7747 127.693 18.572 127.212 18.572V18.534ZM148.744 13.138C150.619 13.138 152.291 13.5813 153.76 14.468C155.23 15.3293 156.37 16.52 157.18 18.04C158.016 19.56 158.434 21.2447 158.434 23.094C158.434 25.0953 157.788 26.97 156.496 28.718C155.204 30.4407 153.583 31.8213 151.632 32.86C149.707 33.8733 147.845 34.38 146.046 34.38C144.197 34.38 142.525 33.9493 141.03 33.088C139.561 32.2013 138.408 30.998 137.572 29.478C136.762 27.958 136.356 26.2733 136.356 24.424C136.356 22.4227 137.002 20.5607 138.294 18.838C139.586 17.09 141.195 15.7093 143.12 14.696C145.071 13.6573 146.946 13.138 148.744 13.138ZM146.54 17.546C145.476 17.546 144.666 17.9767 144.108 18.838C143.576 19.674 143.31 20.928 143.31 22.6C143.31 24.728 143.741 26.5013 144.602 27.92C145.464 29.3133 146.68 30.01 148.25 30.01C149.289 30.01 150.074 29.5793 150.606 28.718C151.164 27.8313 151.442 26.552 151.442 24.88C151.442 22.752 151.012 21.004 150.15 19.636C149.289 18.2427 148.086 17.546 146.54 17.546Z" fill="#67206E"/>
<path d="M188.807 13.176L186.717 14.012L181.891 7.058H172.885V17.318H177.407L180.181 13.062H182.309V24.196L179.839 25.412L177.369 20.244H172.885V30.124L179.497 31.568L178.243 34.038H162.435V31.91L166.007 29.098V7.856L161.789 6.602L163.043 4.132H186.071L188.807 3.486V13.176ZM203.144 34H191.136V31.872L194.518 29.022V8.236L191.136 5.994V3.866L198.584 0.825999H200.978V30.39L204.398 31.53L203.144 34ZM230.454 34H221.79V30.732L217.686 34.114C217.002 34.3167 216.229 34.418 215.368 34.418C213.417 34.418 211.872 33.8987 210.732 32.86C209.592 31.796 209.022 30.3647 209.022 28.566V20.396L205.64 18.458V16.33L213.088 13.024H215.482V25.716C215.482 26.932 215.659 27.7807 216.014 28.262C216.369 28.7433 217.002 28.984 217.914 28.984C219.231 28.984 220.523 28.5533 221.79 27.692V20.396L218.408 18.458V16.33L225.856 13.024H228.25V30.39L231.67 31.53L230.454 34ZM255.64 34.076H248.344L242.986 26.628L239.642 29.706L243.062 31.606L241.808 34.076H233.03V31.948L241.39 24.462L236.374 17.926L232.726 16.026L233.942 13.556H241.276L246.748 20.852L249.94 17.888L246.52 15.988L247.736 13.518H256.552V15.646L248.23 23.094L252.904 29.174L256.894 31.606L255.64 34.076Z" fill="#120511"/>
</svg>
