<svg width="18" height="16" viewBox="0 0 18 16" fill="none" xmlns="http://www.w3.org/2000/svg">
<path d="M12.6998 0.683348C11.5691 0.682837 10.4776 1.09807 9.63317 1.85001C9.459 2.0058 9.23352 2.09193 8.99984 2.09193C8.76616 2.09193 8.54068 2.0058 8.36651 1.85001C7.70008 1.25684 6.87631 0.86907 5.9945 0.73346C5.11268 0.59785 4.21047 0.720185 3.39661 1.08572C2.58274 1.45125 1.89198 2.04438 1.40757 2.7936C0.923169 3.54283 0.665806 4.41617 0.666505 5.30835C0.666505 9.26668 6.74984 13.9 8.51651 15.1667C8.65764 15.2672 8.82659 15.3212 8.99984 15.3212C9.17309 15.3212 9.34204 15.2672 9.48317 15.1667C11.2498 13.9 17.3332 9.26668 17.3332 5.30835C17.331 4.08096 16.8418 2.90459 15.9732 2.03747C15.1045 1.17036 13.9272 0.683346 12.6998 0.683348ZM8.99984 13.45C5.60817 10.95 2.33317 7.54168 2.33317 5.30835C2.33543 4.73887 2.50155 4.18208 2.8117 3.70445C3.12184 3.22683 3.5629 2.84857 4.08221 2.61484C4.60152 2.38111 5.17712 2.30178 5.74029 2.38634C6.30347 2.47089 6.8304 2.71575 7.25817 3.09168C7.73673 3.52095 8.35696 3.75837 8.99984 3.75837C9.64272 3.75837 10.2629 3.52095 10.7415 3.09168C11.1693 2.71575 11.6962 2.47089 12.2594 2.38634C12.8226 2.30178 13.3982 2.38111 13.9175 2.61484C14.4368 2.84857 14.8778 3.22683 15.188 3.70445C15.4981 4.18208 15.6642 4.73887 15.6665 5.30835C15.6665 7.54168 12.3915 10.9333 8.99984 13.45Z" fill="black"/>
</svg>
