<svg width="18" height="16" viewBox="0 0 18 16" fill="none" xmlns="http://www.w3.org/2000/svg">
<path d="M3.99977 8.98333V1.33333C3.99977 1.11232 3.91197 0.900358 3.75569 0.744078C3.59941 0.587797 3.38745 0.5 3.16643 0.5C2.94542 0.5 2.73346 0.587797 2.57718 0.744078C2.4209 0.900358 2.3331 1.11232 2.3331 1.33333V8.98333C1.85047 9.1585 1.43348 9.47802 1.1388 9.89847C0.844118 10.3189 0.686035 10.8199 0.686035 11.3333C0.686035 11.8468 0.844118 12.3477 1.1388 12.7682C1.43348 13.1886 1.85047 13.5082 2.3331 13.6833V14.6667C2.3331 14.8877 2.4209 15.0996 2.57718 15.2559C2.73346 15.4122 2.94542 15.5 3.16643 15.5C3.38745 15.5 3.59941 15.4122 3.75569 15.2559C3.91197 15.0996 3.99977 14.8877 3.99977 14.6667V13.6833C4.48239 13.5082 4.89938 13.1886 5.19406 12.7682C5.48875 12.3477 5.64683 11.8468 5.64683 11.3333C5.64683 10.8199 5.48875 10.3189 5.19406 9.89847C4.89938 9.47802 4.48239 9.1585 3.99977 8.98333V8.98333ZM3.16643 12.1667C3.00161 12.1667 2.8405 12.1178 2.70346 12.0262C2.56642 11.9347 2.45961 11.8045 2.39653 11.6522C2.33346 11.5 2.31696 11.3324 2.34911 11.1708C2.38127 11.0091 2.46063 10.8606 2.57718 10.7441C2.69372 10.6275 2.84221 10.5482 3.00386 10.516C3.16551 10.4839 3.33306 10.5004 3.48534 10.5634C3.63761 10.6265 3.76776 10.7333 3.85932 10.8704C3.95089 11.0074 3.99977 11.1685 3.99977 11.3333C3.99977 11.5543 3.91197 11.7663 3.75569 11.9226C3.59941 12.0789 3.38745 12.1667 3.16643 12.1667ZM9.8331 2.31667V1.33333C9.8331 1.11232 9.7453 0.900358 9.58902 0.744078C9.43274 0.587797 9.22078 0.5 8.99977 0.5C8.77875 0.5 8.56679 0.587797 8.41051 0.744078C8.25423 0.900358 8.16643 1.11232 8.16643 1.33333V2.31667C7.68381 2.49184 7.26682 2.81136 6.97213 3.2318C6.67745 3.65225 6.51937 4.15323 6.51937 4.66667C6.51937 5.1801 6.67745 5.68108 6.97213 6.10153C7.26682 6.52198 7.68381 6.8415 8.16643 7.01667V14.6667C8.16643 14.8877 8.25423 15.0996 8.41051 15.2559C8.56679 15.4122 8.77875 15.5 8.99977 15.5C9.22078 15.5 9.43274 15.4122 9.58902 15.2559C9.7453 15.0996 9.8331 14.8877 9.8331 14.6667V7.01667C10.3157 6.8415 10.7327 6.52198 11.0274 6.10153C11.3221 5.68108 11.4802 5.1801 11.4802 4.66667C11.4802 4.15323 11.3221 3.65225 11.0274 3.2318C10.7327 2.81136 10.3157 2.49184 9.8331 2.31667ZM8.99977 5.5C8.83495 5.5 8.67383 5.45113 8.53679 5.35956C8.39975 5.26799 8.29294 5.13784 8.22987 4.98557C8.16679 4.8333 8.15029 4.66574 8.18244 4.50409C8.2146 4.34244 8.29397 4.19395 8.41051 4.07741C8.52705 3.96087 8.67554 3.8815 8.83719 3.84935C8.99884 3.81719 9.1664 3.83369 9.31867 3.89677C9.47094 3.95984 9.60109 4.06665 9.69266 4.20369C9.78423 4.34073 9.8331 4.50185 9.8331 4.66667C9.8331 4.88768 9.7453 5.09964 9.58902 5.25592C9.43274 5.4122 9.22078 5.5 8.99977 5.5ZM17.3331 8.83333C17.3334 8.31612 17.1732 7.81156 16.8747 7.38918C16.5762 6.9668 16.1541 6.6474 15.6664 6.475C15.6705 6.42786 15.6705 6.38047 15.6664 6.33333V1.33333C15.6664 1.11232 15.5786 0.900358 15.4224 0.744078C15.2661 0.587797 15.0541 0.5 14.8331 0.5C14.6121 0.5 14.4001 0.587797 14.2438 0.744078C14.0876 0.900358 13.9998 1.11232 13.9998 1.33333V6.33333C13.9957 6.38047 13.9957 6.42786 13.9998 6.475C13.5143 6.6485 13.0944 6.96784 12.7974 7.38927C12.5005 7.81071 12.3411 8.31364 12.3411 8.82917C12.3411 9.3447 12.5005 9.84762 12.7974 10.2691C13.0944 10.6905 13.5143 11.0098 13.9998 11.1833V14.6667C13.9998 14.8877 14.0876 15.0996 14.2438 15.2559C14.4001 15.4122 14.6121 15.5 14.8331 15.5C15.0541 15.5 15.2661 15.4122 15.4224 15.2559C15.5786 15.0996 15.6664 14.8877 15.6664 14.6667V11.1833C16.1527 11.0114 16.5739 10.6933 16.8723 10.2726C17.1707 9.85183 17.3317 9.34912 17.3331 8.83333ZM14.8331 9.66667C14.6683 9.66667 14.5072 9.61779 14.3701 9.52622C14.2331 9.43466 14.1263 9.30451 14.0632 9.15224C14.0001 8.99996 13.9836 8.83241 14.0158 8.67076C14.0479 8.50911 14.1273 8.36062 14.2438 8.24408C14.3604 8.12753 14.5089 8.04817 14.6705 8.01601C14.8322 7.98386 14.9997 8.00036 15.152 8.06343C15.3043 8.12651 15.4344 8.23332 15.526 8.37036C15.6176 8.5074 15.6664 8.66852 15.6664 8.83333C15.6664 9.05435 15.5786 9.26631 15.4224 9.42259C15.2661 9.57887 15.0541 9.66667 14.8331 9.66667Z" fill="black"/>
</svg>
