<svg width="17" height="16" viewBox="0 0 17 16" fill="none" xmlns="http://www.w3.org/2000/svg">
<path d="M7.71667 14.325C7.71832 14.589 7.64152 14.8476 7.49602 15.068C7.35052 15.2884 7.14286 15.4606 6.89938 15.5627C6.65589 15.6649 6.38755 15.6925 6.12836 15.642C5.86917 15.5915 5.63082 15.4652 5.44351 15.2791C5.25621 15.0929 5.12839 14.8554 5.07626 14.5965C5.02414 14.3377 5.05005 14.0691 5.15072 13.825C5.25138 13.5809 5.42227 13.3722 5.64171 13.2253C5.86116 13.0784 6.11927 13 6.38333 13C6.73552 13 7.0734 13.1393 7.32321 13.3876C7.57302 13.6358 7.71447 13.9728 7.71667 14.325ZM13.2083 13C12.9446 13 12.6868 13.0782 12.4676 13.2247C12.2483 13.3712 12.0774 13.5794 11.9765 13.8231C11.8756 14.0667 11.8492 14.3348 11.9006 14.5934C11.9521 14.8521 12.0791 15.0897 12.2655 15.2761C12.452 15.4626 12.6896 15.5896 12.9482 15.641C13.2069 15.6925 13.4749 15.6661 13.7186 15.5652C13.9622 15.4642 14.1705 15.2933 14.317 15.0741C14.4635 14.8548 14.5417 14.597 14.5417 14.3333C14.5417 13.9797 14.4012 13.6406 14.1511 13.3905C13.9011 13.1405 13.562 13 13.2083 13ZM16.0333 4.87499L14.6833 10.2833C14.5462 10.8222 14.2332 11.3 13.794 11.6411C13.3548 11.9822 12.8144 12.1672 12.2583 12.1667H7.33333C6.77612 12.1667 6.23487 11.9806 5.79553 11.6378C5.35618 11.2951 5.04392 10.8154 4.90833 10.275L2.90833 2.16665H1.58333C1.36232 2.16665 1.15036 2.07886 0.994078 1.92258C0.837798 1.7663 0.75 1.55433 0.75 1.33332C0.75 1.11231 0.837798 0.900345 0.994078 0.744065C1.15036 0.587785 1.36232 0.499987 1.58333 0.499987H3.55833C3.7487 0.494441 3.93521 0.554265 4.08684 0.669499C4.23846 0.784733 4.34604 0.948424 4.39167 1.13332L5.04167 3.83332H15.125H15.2C15.2773 3.82101 15.356 3.82101 15.4333 3.83332C15.5414 3.86038 15.6429 3.90882 15.732 3.9758C15.821 4.04278 15.8957 4.12692 15.9516 4.22325C16.0075 4.31959 16.0436 4.42617 16.0576 4.53668C16.0717 4.64719 16.0634 4.75939 16.0333 4.86665V4.87499ZM14.1583 5.49999H5.45833L6.55 9.86665C6.59356 10.0432 6.6937 10.2007 6.83514 10.3151C6.97658 10.4294 7.15154 10.4944 7.33333 10.5H12.2333C12.4237 10.5055 12.6102 10.4457 12.7618 10.3305C12.9135 10.2152 13.021 10.0515 13.0667 9.86665L14.1583 5.49999Z" fill="black"/>
</svg>
