<svg width="19" height="12" viewBox="0 0 19 12" fill="none" xmlns="http://www.w3.org/2000/svg">
<path d="M17.7141 10.71C17.6211 10.8037 17.5105 10.8781 17.3887 10.9289C17.2668 10.9797 17.1361 11.0058 17.0041 11.0058C16.8721 11.0058 16.7414 10.9797 16.6195 10.9289C16.4977 10.8781 16.3871 10.8037 16.2941 10.71L9.00409 3.41L1.71409 10.71C1.52579 10.8983 1.27039 11.0041 1.00409 11.0041C0.73779 11.0041 0.482395 10.8983 0.294092 10.71C0.105788 10.5217 0 10.2663 0 10C0 9.7337 0.105788 9.4783 0.294092 9.29L8.29409 1.29C8.38706 1.19627 8.49765 1.12188 8.61951 1.07111C8.74137 1.02034 8.87208 0.994202 9.00409 0.994202C9.1361 0.994202 9.26681 1.02034 9.38867 1.07111C9.51053 1.12188 9.62113 1.19627 9.71409 1.29L17.7141 9.29C17.8078 9.38296 17.8822 9.49356 17.933 9.61542C17.9838 9.73728 18.0099 9.86799 18.0099 10C18.0099 10.132 17.9838 10.2627 17.933 10.3846C17.8822 10.5064 17.8078 10.617 17.7141 10.71Z" fill="#201600"/>
</svg>
